<?xml version="1.0" encoding="UTF-8" standalone="no"?>
<!-- Created with Inkscape (http://www.inkscape.org/) -->

<svg
   width="960"
   height="202.51932"
   viewBox="0 0 960 202.51932"
   version="1.1"
   id="svg1"
   xml:space="preserve"
   xmlns="http://www.w3.org/2000/svg"
   xmlns:svg="http://www.w3.org/2000/svg"><defs
     id="defs1" /><g
     id="g17"
     transform="translate(-130.35022,-205.40437)"
     style="display:inline"><g
       id="g16"
       transform="matrix(0.99617488,0,0,0.99617488,52.922809,-537.86368)"><path
         style="fill:#000000;stroke-width:0.825194"
         d="m 493.7458,949.33615 c -8.09409,-0.58393 -14.51559,-3.33192 -17.32376,-7.41347 -1.62808,-2.36631 0.27786,-3.14847 2.61055,-1.07129 4.80525,4.27894 12.75261,6.07413 20.32605,4.59135 14.28638,-2.79708 27.87291,-14.62821 38.65854,-33.66385 3.06123,-5.40276 5.52782,-10.38385 8.53449,-17.23471 1.09646,-2.49829 5.38792,-13.1693 5.86891,-14.59339 0.184,-0.54477 0.55381,-1.55509 0.8218,-2.24513 0.26801,-0.69004 0.77358,-2.02722 1.12353,-2.9715 0.34993,-0.94427 0.76467,-2.04372 0.92163,-2.44323 0.15697,-0.3995 0.58258,-1.58508 0.94582,-2.6346 0.36326,-1.04955 0.85659,-2.41643 1.09634,-3.03755 0.23973,-0.62111 0.6571,-1.75331 0.92746,-2.516 0.27038,-0.76268 0.69879,-1.92156 0.95199,-2.5753 0.25321,-0.65372 0.59834,-1.54517 0.76695,-1.981 0.16861,-0.43582 0.70488,-1.89185 1.19172,-3.23563 0.48684,-1.34378 1.03151,-2.82953 1.2104,-3.30167 0.17887,-0.47213 0.4399,-1.18531 0.58007,-1.5848 0.14017,-0.39951 0.31286,-0.84522 0.38378,-0.9905 0.071,-0.14528 0.26908,-0.65043 0.44041,-1.12257 0.98737,-2.72112 3.53569,-9.29279 4.45541,-11.48981 0.38009,-0.90797 0.85415,-2.09656 1.05344,-2.64134 0.35793,-0.97839 2.04888,-5.1477 2.42421,-5.9772 0.36605,-0.80903 0.98528,-2.27842 1.3803,-3.27538 0.21759,-0.54912 0.60872,-1.45977 0.86919,-2.02366 0.26047,-0.56388 0.47356,-1.04918 0.47356,-1.07843 0,-0.0547 0.58646,-1.29649 2.24194,-4.74714 1.09064,-2.27333 3.24808,-6.36329 3.97133,-7.52864 0.27047,-0.43583 0.73899,-1.23328 1.04113,-1.77213 0.94709,-1.68905 4.70844,-7.43562 6.11418,-9.34121 6.9358,-9.40197 13.43347,-15.31117 20.74712,-18.86812 4.54861,-2.2122 6.4288,-2.6335 6.4288,-1.44058 0,0.46333 0.007,0.45662 -1.83656,1.88634 -1.20009,0.93091 -1.48501,1.18444 -3.95413,3.51854 -1.43933,1.36062 -3.97001,4.44805 -5.52544,6.74104 -2.32222,3.42335 -6.10104,10.93588 -8.7327,17.36116 -0.22315,0.54477 -0.79439,1.91459 -1.26944,3.04404 -0.83002,1.97335 -2.34175,5.90288 -3.12215,8.11559 -0.20494,0.58109 -0.61953,1.68055 -0.92128,2.44325 -0.30177,0.76268 -0.62753,1.6244 -0.7239,1.91497 -0.0964,0.29054 -0.47934,1.36028 -0.85102,2.37719 -0.37168,1.01692 -0.90526,2.53238 -1.18575,3.36771 -0.28047,0.83532 -0.75755,2.20221 -1.06017,3.03753 -0.30261,0.83533 -0.79252,2.20222 -1.08866,3.03754 -0.56726,1.59998 -0.66696,1.88793 -2.6523,7.65987 -0.68706,1.99751 -1.35128,3.86955 -1.47601,4.16011 -0.12474,0.29054 -0.45253,1.21171 -0.72841,2.04703 -0.27588,0.83532 -0.74899,2.2022 -1.05138,3.03754 -0.30238,0.83531 -0.8446,2.38049 -1.20493,3.43373 -0.36034,1.05324 -0.79893,2.27155 -0.97464,2.70737 -0.17574,0.43582 -0.59435,1.56498 -0.93025,2.50926 -0.74563,2.09607 -1.67214,4.63467 -2.04852,5.61284 -0.15371,0.39951 -0.46065,1.23152 -0.68208,1.84894 -0.22142,0.6174 -0.63767,1.68715 -0.925,2.37721 -0.28733,0.69005 -0.87428,2.19008 -1.30432,3.3334 -0.43005,1.14333 -0.84154,2.18336 -0.91445,2.31116 -0.073,0.12783 -0.36331,0.85641 -0.64532,1.61911 -0.282,0.76268 -0.82368,2.04043 -1.20374,2.83943 -0.38003,0.799 -0.79658,1.75342 -0.92563,2.12093 -0.12908,0.36752 -0.3854,0.99153 -0.56963,1.3867 -0.18424,0.39518 -0.82304,1.81797 -1.41953,3.16174 -1.13359,2.55368 -4.98372,10.42216 -6.26832,12.81048 -1.45787,2.71042 -2.50634,4.57656 -3.4133,6.07506 -0.50556,0.83534 -0.98414,1.63964 -1.0635,1.78736 -1.08755,2.02445 -5.91534,9.05325 -7.80415,11.36209 -0.29056,0.35515 -1.2091,1.47907 -2.04118,2.49757 -1.76459,2.15987 -4.32085,5.03198 -5.63463,6.33084 -2.09113,2.06732 -3.97131,3.85719 -4.73608,4.50856 -0.50715,0.43195 -1.07174,0.92205 -1.25463,1.08911 -10.24688,9.35936 -26.8538,15.61915 -39.09416,14.73614 z m -12.54634,-3.8142 c 0,-0.0363 -0.0298,-0.0661 -0.0661,-0.0661 -0.0363,0 -0.0661,0.0298 -0.0661,0.0661 0,0.0363 0.0298,0.0661 0.0661,0.0661 0.0363,0 0.0661,-0.0298 0.0661,-0.0661 z m 56.39252,-15.98008 c 0,-0.0363 -0.0298,-0.066 -0.0661,-0.066 -0.0363,0 -0.0661,0.0298 -0.0661,0.066 0,0.0363 0.0298,0.0661 0.0661,0.0661 0.0363,0 0.0661,-0.0298 0.0661,-0.0661 z m 54.08132,14.84466 c -14.59971,-1.19346 -26.18984,-7.9243 -32.05961,-18.61833 -1.759,-3.20466 1.03648,-3.10642 3.43851,0.12083 8.39036,11.27297 27.41619,16.02373 42.15796,10.52692 0.47214,-0.17605 1.30416,-0.48042 1.84893,-0.67638 11.2659,-4.05228 21.10043,-12.59089 27.67337,-24.02672 6.90865,-12.01992 9.06978,-27.46548 5.74907,-41.0883 -0.32992,-1.35346 -1.36502,-4.47714 -1.79538,-5.41796 -0.17997,-0.3935 -0.32724,-0.75443 -0.32724,-0.80208 0,-0.21343 -2.19586,-4.44032 -2.82351,-5.43509 -1.93472,-3.06632 -4.61718,-6.22964 -6.94005,-8.18413 -0.40236,-0.33856 -0.84069,-0.71302 -0.97408,-0.83214 -0.13339,-0.11913 -0.72864,-0.56058 -1.32277,-0.98098 -0.59414,-0.42041 -1.37738,-0.98618 -1.74056,-1.25729 -0.36319,-0.27109 -0.92777,-0.63682 -1.25463,-0.81272 -0.32688,-0.1759 -0.81107,-0.44423 -1.07599,-0.59629 -2.39281,-1.37345 -6.8419,-3.08297 -9.75022,-3.74642 -5.33367,-1.21675 -8.05974,-1.59154 -13.79619,-1.89676 -1.7013,-0.0905 -1.79097,-0.14316 -1.79097,-1.05144 0,-1.06858 0.20602,-1.18857 2.37721,-1.38479 4.68511,-0.42337 7.40847,-0.78055 9.50882,-1.24715 0.47213,-0.10489 1.30035,-0.28668 1.8405,-0.40398 4.07823,-0.88566 11.99429,-3.87463 12.8189,-4.84019 0.0363,-0.0425 0.48204,-0.31913 0.99049,-0.61468 3.8436,-2.23409 7.92664,-5.77576 10.84971,-9.41111 1.13623,-1.41312 2.95128,-3.96017 2.95128,-4.14154 0,-0.0317 0.24816,-0.46482 0.55149,-0.96254 12.15956,-19.95282 6.68115,-47.50888 -11.67622,-58.7306 -1.83719,-1.12306 -2.91817,-1.66429 -6.24206,-3.12529 -2.20672,-0.96996 -6.79557,-2.25237 -10.16913,-2.84188 -15.43822,-2.69773 -34.56603,1.11498 -49.0628,9.77958 -1.41101,0.84335 -1.90631,1.16814 -4.02804,2.64131 -2.5838,1.794 -5.54293,4.09306 -7.00243,5.44046 -0.21951,0.20263 -0.69495,0.63023 -1.05654,0.95019 -1.66018,1.46908 -4.64072,4.49161 -5.61237,5.69141 -0.32353,0.39949 -0.62263,0.75608 -0.66466,0.79241 -0.33197,0.28688 -2.85101,3.60196 -3.9138,5.1506 -4.20251,6.12365 -7.22229,12.85497 -8.41307,18.75348 -2.51728,12.46935 -0.49922,20.43271 6.79966,26.83158 2.32598,2.03918 1.75888,3.61328 -0.87128,2.41838 -5.14899,-2.33921 -9.37793,-8.61181 -10.63815,-15.77915 -0.14688,-0.83532 -0.33153,-1.84564 -0.41034,-2.24514 -0.33056,-1.67566 -0.28537,-6.4793 0.0851,-9.04657 0.0314,-0.21792 0.15021,-1.04692 0.26396,-1.84224 1.83708,-12.8475 11.6859,-27.69466 25.21614,-38.01349 5.33642,-4.06981 11.63025,-7.78182 16.84915,-9.93738 0.76269,-0.31499 1.74106,-0.73012 2.17418,-0.92246 3.45552,-1.53471 13.01073,-4.32132 17.17359,-5.0084 11.92368,-1.96799 23.86524,-1.91704 33.26117,0.14189 0.51926,0.11379 1.33043,0.28498 1.80257,0.38041 9.46971,1.91394 20.35057,7.79482 26.67865,14.41926 11.44727,11.98338 14.63605,30.76286 7.76584,45.73492 -4.75232,10.3566 -10.3505,16.57815 -20.37938,22.64864 -1.74545,1.05652 -5.72086,3.13342 -6.80144,3.55332 -0.32686,0.12702 -0.83202,0.33939 -1.12256,0.47194 -1.1922,0.54389 -2.25885,0.97193 -3.34344,1.34167 -1.96214,0.66892 -5.79442,1.81021 -6.63127,1.97484 -0.95082,0.18706 -0.97312,0.41638 -0.052,0.53382 0.56392,0.0719 1.53034,0.26667 3.85422,0.77674 7.19099,1.5784 14.611,5.09664 20.42077,9.68264 1.88901,1.49112 4.33498,3.87033 5.83384,5.67463 0.55556,0.66877 1.25335,1.50579 1.55063,1.86001 0.29728,0.35424 0.72057,0.91881 0.94063,1.25464 0.22006,0.33582 0.44605,0.63038 0.50217,0.65459 0.0562,0.0242 0.10208,0.0994 0.10208,0.16713 0,0.11171 0.58798,1.08182 1.21021,1.99669 0.55635,0.81803 2.59578,5.02353 3.06022,6.31047 0.27522,0.76269 0.55083,1.50557 0.61244,1.65084 2.68696,6.33521 3.1397,17.13846 1.10966,26.47938 -1.91961,8.83294 -5.70951,17.01024 -11.32357,24.43235 -0.57689,0.76269 -1.0843,1.41642 -1.12758,1.45274 -0.0432,0.0363 -0.40471,0.45233 -0.80317,0.92446 -0.39849,0.47214 -0.78479,0.92472 -0.85844,1.00575 -2.58102,2.83838 -3.55386,3.84382 -4.74753,4.90643 -0.79419,0.707 -1.83422,1.63595 -2.31118,2.06432 -11.15652,10.02018 -28.89561,15.65535 -45.10954,14.32994 z"
         id="path15" /><text
         xml:space="preserve"
         style="font-style:normal;font-variant:normal;font-weight:normal;font-stretch:normal;font-size:151.137px;font-family:'Libre Bodoni';-inkscape-font-specification:'Libre Bodoni, Normal';font-variant-ligatures:normal;font-variant-caps:normal;font-variant-numeric:normal;font-variant-east-asian:normal;writing-mode:lr-tb;direction:ltr;fill:#000000;stroke-width:1.61933"
         x="70.167984"
         y="907.60162"
         id="text15"><tspan
           id="tspan15"
           x="70.167984"
           y="907.60162"
           style="font-style:normal;font-variant:normal;font-weight:500;font-stretch:normal;font-size:151.137px;font-family:'Playfair Display';-inkscape-font-specification:'Playfair Display, Medium';font-variant-ligatures:normal;font-variant-caps:normal;font-variant-numeric:normal;font-variant-east-asian:normal;stroke-width:1.61933">Carlos</tspan></text><text
         xml:space="preserve"
         style="font-style:normal;font-variant:normal;font-weight:normal;font-stretch:normal;font-size:151.137px;font-family:'Libre Bodoni';-inkscape-font-specification:'Libre Bodoni, Normal';font-variant-ligatures:normal;font-variant-caps:normal;font-variant-numeric:normal;font-variant-east-asian:normal;writing-mode:lr-tb;direction:ltr;fill:#000000;stroke-width:1.61933"
         x="672.7879"
         y="909.0575"
         id="text16"><tspan
           id="tspan16"
           x="672.7879"
           y="909.0575"
           style="font-style:normal;font-variant:normal;font-weight:500;font-stretch:normal;font-size:151.137px;font-family:'Playfair Display';-inkscape-font-specification:'Playfair Display, Medium';font-variant-ligatures:normal;font-variant-caps:normal;font-variant-numeric:normal;font-variant-east-asian:normal;stroke-width:1.61933">araza</tspan></text></g></g></svg>
