<?xml version="1.0" encoding="UTF-8" standalone="no"?>
<!-- Created with Inkscape (http://www.inkscape.org/) -->

<svg
   width="960"
   height="960"
   viewBox="0 0 960 960"
   version="1.1"
   id="svg1"
   xml:space="preserve"
   xmlns="http://www.w3.org/2000/svg"
   xmlns:svg="http://www.w3.org/2000/svg"><defs
     id="defs1" /><g
     id="g4"
     transform="matrix(1.875,0,0,1.875,-2056.764,-2297.5875)"><rect
       style="fill:none;stroke-width:1.07663"
       id="rect4"
       width="512"
       height="512"
       x="1096.9408"
       y="1225.38" /><path
       style="fill:#000000;stroke-width:1.52656"
       d="m 1203.1165,1669.2697 c -14.9736,-1.0803 -26.8529,-6.1639 -32.0478,-13.7144 -3.0119,-4.3775 0.514,-5.8245 4.8293,-1.9819 8.8894,7.9156 23.5915,11.2368 37.6019,8.4936 26.4288,-5.1745 51.563,-27.0612 71.5157,-62.2758 5.6631,-9.9947 10.2261,-19.2096 15.7883,-31.8831 2.0283,-4.6216 9.9673,-24.3623 10.8571,-26.9967 0.3403,-1.008 1.0245,-2.8769 1.5202,-4.1536 0.4958,-1.2763 1.4311,-3.7501 2.0785,-5.497 0.6473,-1.7467 1.4146,-3.7808 1.7049,-4.5197 0.2904,-0.7391 1.0778,-2.9324 1.7497,-4.874 0.672,-1.9413 1.5847,-4.47 2.0282,-5.619 0.4435,-1.1491 1.2156,-3.2435 1.7157,-4.6545 0.5002,-1.4109 1.2928,-3.5549 1.7612,-4.7642 0.4684,-1.2095 1.1068,-2.8585 1.4188,-3.6647 0.3119,-0.8063 1.3039,-3.4999 2.2046,-5.9858 0.9006,-2.4858 1.9082,-5.2344 2.2391,-6.1077 0.3309,-0.8736 0.8138,-2.1928 1.0731,-2.9318 0.2593,-0.7391 0.5788,-1.5638 0.71,-1.8323 0.1313,-0.2689 0.4978,-1.2033 0.8147,-2.0767 1.8266,-5.0339 6.5408,-17.1912 8.2422,-21.2555 0.7032,-1.6797 1.5802,-3.8786 1.9488,-4.8864 0.6622,-1.8097 3.7903,-9.5229 4.4846,-11.0574 0.6772,-1.4965 1.8227,-4.2149 2.5535,-6.0591 0.4025,-1.016 1.1261,-2.7005 1.608,-3.7438 0.4818,-1.0431 0.876,-1.9408 0.876,-1.9948 0,-0.1021 1.0849,-2.3986 4.1475,-8.7821 2.0176,-4.2055 6.0087,-11.7716 7.3467,-13.9274 0.5003,-0.8062 1.367,-2.2816 1.926,-3.2783 1.752,-3.1246 8.7103,-13.7556 11.3108,-17.2806 12.8308,-17.393 24.851,-28.3247 38.3808,-34.9049 8.4146,-4.0923 11.8929,-4.8717 11.8929,-2.6648 0,0.857 0.013,0.8447 -3.3976,3.4895 -2.2201,1.722 -2.7471,2.1911 -7.3148,6.5089 -2.6627,2.5172 -7.3443,8.2287 -10.2217,12.4708 -4.296,6.3328 -11.2866,20.2305 -16.155,32.1169 -0.4128,1.0078 -1.4695,3.5417 -2.3483,5.6313 -1.5355,3.6505 -4.3321,10.9199 -5.7758,15.0134 -0.3791,1.0748 -1.1461,3.1086 -1.7043,4.5196 -0.5583,1.411 -1.1609,3.0051 -1.3392,3.5427 -0.1783,0.5374 -0.8867,2.5165 -1.5743,4.3976 -0.6876,1.8812 -1.6747,4.6848 -2.1936,6.23 -0.5188,1.5453 -1.4014,4.074 -1.9612,5.6192 -0.5598,1.5453 -1.4661,4.074 -2.014,5.6194 -1.0494,2.9598 -1.2338,3.4926 -4.9066,14.1702 -1.271,3.6951 -2.4997,7.1585 -2.7305,7.6959 -0.2307,0.5376 -0.8371,2.2414 -1.3475,3.7869 -0.5103,1.5452 -1.3856,4.0739 -1.945,5.6192 -0.5594,1.5452 -1.5624,4.4037 -2.229,6.3521 -0.6666,1.9486 -1.478,4.2023 -1.803,5.0085 -0.3251,0.8063 -1.0995,2.8951 -1.7209,4.642 -1.3794,3.8775 -3.0934,8.5738 -3.7896,10.3835 -0.2844,0.7389 -0.8522,2.2782 -1.2618,3.4202 -0.4097,1.1421 -1.1797,3.1212 -1.7112,4.3979 -0.5316,1.2765 -1.6174,4.0513 -2.413,6.1665 -0.7955,2.1151 -1.5567,4.039 -1.6916,4.2754 -0.135,0.2364 -0.6721,1.5843 -1.1938,2.9952 -0.5217,1.411 -1.5238,3.7748 -2.2268,5.253 -0.7031,1.478 -1.4737,3.2435 -1.7124,3.9234 -0.2388,0.6799 -0.713,1.8342 -1.0538,2.5653 -0.3408,0.7311 -1.5226,3.3633 -2.626,5.8489 -2.0971,4.7243 -9.2196,19.2805 -11.596,23.6986 -2.697,5.0142 -4.6366,8.4664 -6.3144,11.2386 -0.9352,1.5453 -1.8206,3.0331 -1.9674,3.3065 -2.0119,3.7451 -10.943,16.7478 -14.4371,21.019 -0.5376,0.657 -2.2368,2.7362 -3.7761,4.6203 -3.2644,3.9958 -7.9933,9.309 -10.4237,11.7116 -3.8684,3.8244 -7.3466,7.1357 -8.7614,8.3407 -0.9382,0.7989 -1.9827,1.7057 -2.321,2.0147 -18.9561,17.3143 -49.6778,28.8944 -72.3216,27.261 z m -23.2099,-7.0562 c 0,-0.067 -0.055,-0.1226 -0.1224,-0.1226 -0.067,0 -0.1222,0.056 -0.1222,0.1226 0,0.067 0.055,0.1225 0.1222,0.1225 0.067,0 0.1224,-0.056 0.1224,-0.1225 z m 104.3224,-29.5618 c 0,-0.067 -0.055,-0.1226 -0.1222,-0.1226 -0.067,0 -0.1222,0.056 -0.1222,0.1226 0,0.067 0.055,0.1225 0.1222,0.1225 0.067,0 0.1222,-0.056 0.1222,-0.1225 z m 100.0469,27.4615 c -27.0085,-2.2077 -48.4495,-14.6595 -59.3082,-34.4427 -3.254,-5.9284 1.9175,-5.7466 6.361,0.2234 15.5216,20.8544 50.7182,29.6428 77.9895,19.4742 0.8734,-0.3257 2.4126,-0.8888 3.4204,-1.2511 20.8411,-7.4965 39.0344,-23.2924 51.1939,-44.448 12.7805,-22.2361 16.7785,-50.8093 10.6354,-76.0107 -0.6104,-2.5037 -2.5252,-8.2822 -3.3214,-10.0227 -0.3329,-0.7279 -0.6053,-1.3959 -0.6053,-1.4839 0,-0.3948 -4.0622,-8.2142 -5.2233,-10.0546 -3.5791,-5.6725 -8.5415,-11.5244 -12.8387,-15.14 -0.7443,-0.6264 -1.5552,-1.3191 -1.802,-1.5395 -0.2467,-0.2203 -1.3479,-1.037 -2.447,-1.8145 -1.0991,-0.7779 -2.5481,-1.8246 -3.2199,-2.326 -0.6719,-0.5015 -1.7163,-1.1783 -2.321,-1.5036 -0.6047,-0.3255 -1.5004,-0.8217 -1.9905,-1.1029 -4.4265,-2.541 -12.6571,-5.7035 -18.0373,-6.9308 -9.8669,-2.2509 -14.91,-2.9442 -25.522,-3.5089 -3.1473,-0.169 -3.3132,-0.2648 -3.3132,-1.9451 0,-1.9766 0.3811,-2.1987 4.3977,-2.5617 8.6671,-0.7832 13.7052,-1.4441 17.5907,-2.3072 0.8734,-0.1941 2.4056,-0.5304 3.4048,-0.7473 7.5444,-1.6383 22.1886,-7.1678 23.7141,-8.9541 0.067,-0.08 0.8917,-0.5903 1.8324,-1.1372 7.1103,-4.1327 14.6637,-10.6847 20.0712,-17.4099 2.1019,-2.6142 5.4597,-7.3259 5.4597,-7.6614 0,-0.06 0.4591,-0.8598 1.0202,-1.7806 22.4944,-36.9115 12.3597,-87.8883 -21.6002,-108.6478 -3.3987,-2.0776 -5.3985,-3.0788 -11.5474,-5.7815 -4.0823,-1.7944 -12.5714,-4.1668 -18.8123,-5.2574 -28.5596,-4.9905 -63.9448,2.0627 -90.7629,18.0916 -2.6103,1.5601 -3.5265,2.161 -7.4516,4.8862 -4.7799,3.3189 -10.254,7.5719 -12.954,10.0644 -0.4061,0.3749 -1.2856,1.166 -1.9546,1.7579 -3.0712,2.7178 -8.585,8.3091 -10.3825,10.5286 -0.5985,0.7391 -1.1518,1.3988 -1.2296,1.466 -0.6141,0.5307 -5.2741,6.6634 -7.2402,9.5283 -7.7744,11.3284 -13.3608,23.7808 -15.5637,34.6926 -4.6568,23.0677 -0.9235,37.7992 12.579,49.6367 4.3029,3.7724 3.2538,6.6844 -1.6118,4.474 -9.5253,-4.3275 -17.3486,-15.9313 -19.6799,-29.1906 -0.2717,-1.5452 -0.6133,-3.4142 -0.7591,-4.1533 -0.6115,-3.0999 -0.5279,-11.9862 0.1575,-16.7356 0.058,-0.4031 0.2779,-1.9367 0.4883,-3.4078 3.3985,-23.7671 21.6181,-51.2334 46.6482,-70.3225 9.872,-7.529 21.5152,-14.3959 31.1698,-18.3835 1.4109,-0.5828 3.2208,-1.3507 4.0221,-1.7065 6.3925,-2.8392 24.069,-7.9943 31.77,-9.2651 22.058,-3.6407 44.1491,-3.5466 61.5309,0.2622 0.9606,0.2106 2.4612,0.5272 3.3347,0.704 17.5183,3.5405 37.6472,14.4197 49.3537,26.6745 21.1767,22.1686 27.0757,56.9093 14.3663,84.6066 -8.7915,19.1591 -19.1477,30.6686 -37.7005,41.8985 -3.229,1.9545 -10.5832,5.7965 -12.5822,6.5733 -0.6047,0.2351 -1.5392,0.6279 -2.0767,0.873 -2.2055,1.0064 -4.1787,1.7982 -6.1851,2.4821 -3.6298,1.2374 -10.7193,3.3488 -12.2674,3.6534 -1.759,0.346 -1.8002,0.7703 -0.096,0.9876 1.0432,0.1337 2.831,0.4932 7.13,1.4368 13.3029,2.92 27.0294,9.4283 37.7771,17.9122 3.4945,2.7586 8.0194,7.16 10.7922,10.4978 1.0277,1.237 2.3186,2.7856 2.8686,3.4409 0.5499,0.6552 1.333,1.6998 1.7401,2.321 0.4071,0.6211 0.8251,1.1662 0.929,1.2109 0.1039,0.045 0.1888,0.1839 0.1888,0.309 0,0.2069 1.0877,2.0016 2.2388,3.6939 1.0292,1.5135 4.802,9.2933 5.6612,11.6741 0.5091,1.4107 1.019,2.7851 1.133,3.0537 4.9707,11.7199 5.8082,31.7052 2.0528,48.9853 -3.5512,16.3404 -10.5622,31.4678 -20.9479,45.1982 -1.0672,1.411 -2.0059,2.6203 -2.0859,2.6873 -0.08,0.067 -0.7487,0.8368 -1.4858,1.7104 -0.7372,0.8733 -1.4518,1.7107 -1.5881,1.8605 -4.7747,5.2508 -6.5744,7.1108 -8.7826,9.0767 -1.4692,1.3079 -3.3932,3.0262 -4.2755,3.8188 -20.6389,18.5367 -53.455,28.9612 -83.4497,26.5094 z"
       id="path4" /></g></svg>
