<?xml version="1.0" encoding="UTF-8" standalone="no"?>
<!-- Created with Inkscape (http://www.inkscape.org/) -->

<svg
   width="960"
   height="960"
   viewBox="0 0 960 960"
   version="1.1"
   id="svg1"
   xml:space="preserve"
   xmlns="http://www.w3.org/2000/svg"
   xmlns:svg="http://www.w3.org/2000/svg"><defs
     id="defs1" /><g
     id="g3"
     transform="matrix(1.875,0,0,1.875,-728.97961,-2297.5875)"><rect
       style="fill:#ffffff;stroke-width:1.07663"
       id="rect3"
       width="512"
       height="512"
       x="388.78912"
       y="1225.38" /><path
       style="fill:#000000;stroke-width:1.52656"
       d="m 494.96484,1669.2697 c -14.97353,-1.0803 -26.85286,-6.1639 -32.0478,-13.7144 -3.01183,-4.3775 0.51403,-5.8245 4.82934,-1.9819 8.8894,7.9156 23.59149,11.2368 37.60185,8.4936 26.42887,-5.1745 51.56305,-27.0612 71.51574,-62.2758 5.66308,-9.9947 10.22611,-19.2096 15.78826,-31.8831 2.02836,-4.6216 9.96729,-24.3623 10.85709,-26.9967 0.34038,-1.008 1.02451,-2.8769 1.52026,-4.1536 0.49581,-1.2763 1.43107,-3.7501 2.07845,-5.497 0.64737,-1.7467 1.4146,-3.7808 1.70497,-4.5197 0.29038,-0.7391 1.07773,-2.9324 1.7497,-4.874 0.67201,-1.9413 1.58465,-4.47 2.02816,-5.619 0.44348,-1.1491 1.21558,-3.2435 1.71574,-4.6545 0.50019,-1.4109 1.29272,-3.5549 1.76112,-4.7642 0.46842,-1.2095 1.10689,-2.8585 1.41881,-3.6647 0.31191,-0.8063 1.30398,-3.4999 2.2046,-5.9858 0.90061,-2.4858 1.90822,-5.2344 2.23916,-6.1077 0.33089,-0.8736 0.81378,-2.1928 1.07309,-2.9318 0.2593,-0.7391 0.57877,-1.5638 0.70997,-1.8323 0.13129,-0.2689 0.49777,-1.2033 0.81473,-2.0767 1.82657,-5.0339 6.54079,-17.1912 8.2422,-21.2555 0.70315,-1.6797 1.58014,-3.8786 1.9488,-4.8864 0.66214,-1.8097 3.7903,-9.5229 4.48463,-11.0574 0.67717,-1.4965 1.8227,-4.2149 2.55346,-6.0591 0.40254,-1.016 1.12609,-2.7005 1.60796,-3.7438 0.48184,-1.0431 0.87604,-1.9408 0.87604,-1.9948 0,-0.1021 1.08491,-2.3986 4.14745,-8.7821 2.01761,-4.2055 6.00872,-11.7716 7.3467,-13.9274 0.50034,-0.8062 1.36707,-2.2816 1.92602,-3.2783 1.75204,-3.1246 8.71031,-13.7556 11.31083,-17.2806 12.83077,-17.393 24.85102,-28.3247 38.3808,-34.9049 8.41462,-4.0923 11.89285,-4.8717 11.89285,-2.6648 0,0.857 0.013,0.8447 -3.39752,3.4895 -2.22009,1.722 -2.74717,2.1911 -7.31487,6.5089 -2.66268,2.5172 -7.34427,8.2287 -10.22171,12.4708 -4.29594,6.3328 -11.28652,20.2305 -16.15491,32.1169 -0.41282,1.0078 -1.46958,3.5417 -2.34839,5.6313 -1.53547,3.6505 -4.33207,10.9199 -5.77577,15.0134 -0.37912,1.0748 -1.14609,3.1086 -1.7043,4.5196 -0.55826,1.411 -1.16089,3.0051 -1.33916,3.5427 -0.17828,0.5374 -0.88676,2.5165 -1.57434,4.3976 -0.68759,1.8812 -1.67466,4.6848 -2.19355,6.23 -0.51886,1.5453 -1.40142,4.074 -1.96126,5.6192 -0.5598,1.5453 -1.46609,4.074 -2.01394,5.6194 -1.04939,2.9598 -1.23383,3.4926 -4.90659,14.1702 -1.27101,3.6951 -2.49977,7.1585 -2.73051,7.6959 -0.23076,0.5376 -0.83715,2.2414 -1.3475,3.7869 -0.51037,1.5452 -1.38559,4.0739 -1.94499,5.6192 -0.5594,1.5452 -1.56246,4.4037 -2.22904,6.3521 -0.66662,1.9486 -1.47798,4.2023 -1.80303,5.0085 -0.3251,0.8063 -1.0995,2.8951 -1.7209,4.642 -1.37937,3.8775 -3.09334,8.5738 -3.78962,10.3835 -0.28435,0.7389 -0.85218,2.2782 -1.2618,3.4202 -0.40963,1.1421 -1.17965,3.1212 -1.71119,4.3979 -0.53155,1.2765 -1.61736,4.0513 -2.41292,6.1665 -0.79555,2.1151 -1.55679,4.039 -1.69167,4.2754 -0.135,0.2364 -0.6721,1.5843 -1.19379,2.9952 -0.52168,1.411 -1.52376,3.7748 -2.22683,5.253 -0.70304,1.478 -1.47364,3.2435 -1.71236,3.9234 -0.23879,0.6799 -0.71297,1.8342 -1.05377,2.5653 -0.34084,0.7311 -1.52259,3.3633 -2.62606,5.8489 -2.09706,4.7243 -9.21954,19.2805 -11.59597,23.6986 -2.69696,5.0142 -4.63656,8.4664 -6.31437,11.2386 -0.93526,1.5453 -1.8206,3.0331 -1.9674,3.3065 -2.0119,3.7451 -10.943,16.7478 -14.43717,21.019 -0.53752,0.657 -2.23676,2.7362 -3.77604,4.6203 -3.26438,3.9958 -7.9933,9.309 -10.4237,11.7116 -3.86845,3.8244 -7.34666,7.1357 -8.76143,8.3407 -0.93821,0.7989 -1.98266,1.7057 -2.321,2.0147 -18.95604,17.3143 -49.67775,28.8944 -72.32161,27.261 z m -23.20988,-7.0562 c 0,-0.067 -0.0551,-0.1226 -0.12238,-0.1226 -0.0672,0 -0.12219,0.056 -0.12219,0.1226 0,0.067 0.0552,0.1225 0.12219,0.1225 0.0672,0 0.12238,-0.056 0.12238,-0.1225 z m 104.32243,-29.5618 c 0,-0.067 -0.0552,-0.1226 -0.12219,-0.1226 -0.0672,0 -0.1222,0.056 -0.1222,0.1226 0,0.067 0.0552,0.1225 0.1222,0.1225 0.0672,0 0.12219,-0.056 0.12219,-0.1225 z m 100.04686,27.4615 c -27.00849,-2.2077 -48.44947,-14.6595 -59.30816,-34.4427 -3.25403,-5.9284 1.91743,-5.7466 6.36102,0.2234 15.5216,20.8544 50.71814,29.6428 77.98943,19.4742 0.87342,-0.3257 2.41261,-0.8888 3.42041,-1.2511 20.84115,-7.4965 39.0344,-23.2924 51.19389,-44.448 12.78055,-22.2361 16.7785,-50.8093 10.6354,-76.0107 -0.61034,-2.5037 -2.5252,-8.2822 -3.32133,-10.0227 -0.33293,-0.7279 -0.60538,-1.3959 -0.60538,-1.4839 0,-0.3948 -4.06219,-8.2142 -5.2233,-10.0546 -3.57911,-5.6725 -8.54148,-11.5244 -12.83863,-15.14 -0.74434,-0.6264 -1.55523,-1.3191 -1.802,-1.5395 -0.24676,-0.2203 -1.34793,-1.037 -2.44703,-1.8145 -1.09911,-0.7779 -2.54806,-1.8246 -3.21992,-2.326 -0.67188,-0.5015 -1.71631,-1.1783 -2.32098,-1.5036 -0.60471,-0.3255 -1.50043,-0.8217 -1.9905,-1.1029 -4.42655,-2.541 -12.65707,-5.7035 -18.03727,-6.9308 -9.86694,-2.2509 -14.90999,-2.9442 -25.52205,-3.5089 -3.14729,-0.169 -3.31316,-0.2648 -3.31316,-1.9451 0,-1.9766 0.38112,-2.1987 4.39767,-2.5617 8.66715,-0.7832 13.70518,-1.4441 17.59069,-2.3072 0.87341,-0.1941 2.40557,-0.5304 3.40481,-0.7473 7.54445,-1.6383 22.18864,-7.1678 23.71412,-8.9541 0.0672,-0.08 0.89173,-0.5903 1.83234,-1.1372 7.11039,-4.1327 14.66376,-10.6847 20.07125,-17.4099 2.10194,-2.6142 5.45967,-7.3259 5.45967,-7.6614 0,-0.06 0.45908,-0.8598 1.02022,-1.7806 22.49438,-36.9115 12.35968,-87.8883 -21.60024,-108.6478 -3.39868,-2.0776 -5.39843,-3.0788 -11.54739,-5.7815 -4.08229,-1.7944 -12.57136,-4.1668 -18.81224,-5.2574 -28.55967,-4.9905 -63.94486,2.0627 -90.76291,18.0916 -2.61029,1.5601 -3.52655,2.161 -7.45162,4.8862 -4.77985,3.3189 -10.25404,7.5719 -12.95403,10.0644 -0.40608,0.3749 -1.28561,1.166 -1.95453,1.7579 -3.07122,2.7178 -8.58503,8.3091 -10.38251,10.5286 -0.5985,0.7391 -1.15183,1.3988 -1.22958,1.466 -0.61412,0.5307 -5.27417,6.6634 -7.24027,9.5283 -7.77436,11.3284 -13.36075,23.7808 -15.56363,34.6926 -4.6568,23.0677 -0.92352,37.7992 12.57892,49.6367 4.30293,3.7724 3.25381,6.6844 -1.61179,4.474 -9.5253,-4.3275 -17.34856,-15.9313 -19.67988,-29.1906 -0.27172,-1.5452 -0.61331,-3.4142 -0.7591,-4.1533 -0.61152,-3.0999 -0.52792,-11.9862 0.15747,-16.7356 0.0581,-0.4031 0.27789,-1.9367 0.48831,-3.4078 3.39849,-23.7671 21.61814,-51.2334 46.6482,-70.3225 9.87201,-7.529 21.51519,-14.3959 31.16981,-18.3835 1.41093,-0.5828 3.22085,-1.3507 4.02209,-1.7065 6.39248,-2.8392 24.06898,-7.9943 31.77,-9.2651 22.05802,-3.6407 44.14911,-3.5466 61.53096,0.2622 0.96061,0.2106 2.46121,0.5272 3.33465,0.704 17.51832,3.5405 37.64719,14.4197 49.35373,26.6745 21.17669,22.1686 27.07572,56.9093 14.36628,84.6066 -8.79147,19.1591 -19.14774,30.6686 -37.70049,41.8985 -3.22898,1.9545 -10.58322,5.7965 -12.58222,6.5733 -0.60467,0.2351 -1.53917,0.6279 -2.07665,0.873 -2.2055,1.0064 -4.17873,1.7982 -6.18514,2.4821 -3.62984,1.2374 -10.71931,3.3488 -12.26743,3.6534 -1.75894,0.346 -1.80021,0.7703 -0.0962,0.9876 1.04321,0.1337 2.83103,0.4932 7.13006,1.4368 13.30285,2.92 27.02938,9.4283 37.77707,17.9122 3.49454,2.7586 8.01941,7.16 10.79221,10.4978 1.02774,1.237 2.31863,2.7856 2.86857,3.4409 0.54994,0.6552 1.333,1.6998 1.7401,2.321 0.4071,0.6211 0.82515,1.1662 0.92898,1.2109 0.10399,0.045 0.18884,0.1839 0.18884,0.309 0,0.2069 1.08773,2.0016 2.23881,3.6939 1.02921,1.5135 4.80202,9.2933 5.6612,11.6741 0.50914,1.4107 1.01901,2.7851 1.13297,3.0537 4.9707,11.7199 5.80824,31.7052 2.05281,48.9853 -3.55116,16.3404 -10.56221,31.4678 -20.94786,45.1982 -1.0672,1.411 -2.00588,2.6203 -2.08596,2.6873 -0.0798,0.067 -0.74868,0.8368 -1.48579,1.7104 -0.73719,0.8733 -1.45182,1.7107 -1.58807,1.8605 -4.77472,5.2508 -6.57441,7.1108 -8.78261,9.0767 -1.4692,1.3079 -3.39318,3.0262 -4.27553,3.8188 -20.63882,18.5367 -53.45497,28.9612 -83.44967,26.5094 z"
       id="path3" /></g></svg>
