<?xml version="1.0" encoding="UTF-8" standalone="no"?>
<!-- Created with Inkscape (http://www.inkscape.org/) -->

<svg
   width="960.00012"
   height="1055.7014"
   viewBox="0 0 960.00012 1055.7014"
   version="1.1"
   id="svg1"
   xml:space="preserve"
   xmlns="http://www.w3.org/2000/svg"
   xmlns:svg="http://www.w3.org/2000/svg"><defs
     id="defs1" /><g
     id="g9"
     transform="matrix(5.2128434,0,0,5.2128434,-2709.4576,-6522.4406)"
     style="fill:#ffffff"><path
       style="fill:#ffffff;stroke-width:0.822038"
       d="m 537.62876,1453.6619 c -8.06313,-0.5817 -14.46007,-3.3192 -17.25749,-7.3851 -1.62186,-2.3572 0.27679,-3.1364 2.60056,-1.0672 4.78687,4.2626 12.70383,6.0509 20.2483,4.5738 14.23173,-2.7864 27.76629,-14.5723 38.51067,-33.5351 3.04952,-5.3821 5.50667,-10.3442 8.50184,-17.1688 1.09227,-2.4887 5.36731,-13.1189 5.84646,-14.5375 0.1833,-0.5427 0.55169,-1.5492 0.81866,-2.2366 0.26698,-0.6874 0.77062,-2.0195 1.11923,-2.9602 0.34859,-0.9406 0.76175,-2.0359 0.91811,-2.4338 0.15636,-0.398 0.58035,-1.5791 0.9422,-2.6246 0.36187,-1.0454 0.85331,-2.4071 1.09214,-3.0258 0.23882,-0.6188 0.65459,-1.7466 0.92392,-2.5064 0.26934,-0.7598 0.69611,-1.9143 0.94834,-2.5655 0.25225,-0.6513 0.59606,-1.5392 0.76402,-1.9734 0.16797,-0.4342 0.70218,-1.8846 1.18716,-3.2233 0.48498,-1.3386 1.02757,-2.8187 1.20577,-3.289 0.17819,-0.4704 0.43822,-1.1807 0.57785,-1.5787 0.13964,-0.398 0.31167,-0.8421 0.38232,-0.9867 0.0707,-0.1448 0.26805,-0.648 0.43872,-1.1183 0.98359,-2.7107 3.52217,-9.2573 4.43837,-11.4459 0.37863,-0.9045 0.85088,-2.0886 1.04941,-2.6313 0.35656,-0.9745 2.04104,-5.128 2.41494,-5.9543 0.36465,-0.8059 0.98151,-2.2697 1.37502,-3.2628 0.21675,-0.5471 0.60639,-1.4542 0.86586,-2.0159 0.25948,-0.5618 0.47175,-1.0452 0.47175,-1.0743 0,-0.055 0.58422,-1.2916 2.23336,-4.7291 1.08647,-2.2646 3.23566,-6.3389 3.95614,-7.4998 0.26944,-0.4341 0.73617,-1.2285 1.03715,-1.7653 0.94347,-1.6826 4.69043,-7.4072 6.09079,-9.3055 6.90927,-9.366 13.38209,-15.2526 20.66776,-18.796 4.53121,-2.2037 6.40421,-2.6234 6.40421,-1.435 0,0.4616 0.007,0.4549 -1.82953,1.8791 -1.1955,0.9274 -1.47933,1.1799 -3.93901,3.5051 -1.43382,1.3555 -3.95482,4.431 -5.5043,6.7153 -2.31334,3.4102 -6.0777,10.894 -8.6993,17.2947 -0.22229,0.5427 -0.79135,1.9072 -1.26458,3.0324 -0.82685,1.9658 -2.3328,5.8803 -3.11021,8.0846 -0.20416,0.5789 -0.61716,1.674 -0.91776,2.4338 -0.30061,0.7598 -0.62513,1.6182 -0.72113,1.9077 -0.096,0.2894 -0.4775,1.3551 -0.84776,2.3681 -0.37026,1.013 -0.9018,2.5227 -1.18122,3.3548 -0.27939,0.8321 -0.75465,2.1938 -1.05611,3.0259 -0.30145,0.8321 -0.78949,2.1938 -1.0845,3.026 -0.56509,1.5938 -0.66441,1.8807 -2.64215,7.6305 -0.68443,1.9899 -1.34611,3.8548 -1.47037,4.1442 -0.12426,0.2895 -0.45079,1.207 -0.72562,2.0392 -0.27482,0.8322 -0.74612,2.1938 -1.04736,3.0259 -0.30122,0.8321 -0.84137,2.3714 -1.20032,3.4206 -0.35896,1.0493 -0.79587,2.2629 -0.97091,2.697 -0.17507,0.4342 -0.59208,1.5591 -0.92669,2.4997 -0.74278,2.088 -1.66575,4.6169 -2.04069,5.5914 -0.15312,0.3979 -0.45888,1.2268 -0.67947,1.8418 -0.22057,0.615 -0.63523,1.6807 -0.92146,2.3682 -0.28623,0.6874 -0.87093,2.1816 -1.29933,3.3207 -0.4284,1.1389 -0.83832,2.1749 -0.91095,2.3022 -0.0727,0.1273 -0.36192,0.8531 -0.64285,1.6129 -0.28092,0.7598 -0.82053,2.0327 -1.19914,2.8287 -0.37858,0.7959 -0.79353,1.7467 -0.92209,2.1127 -0.12858,0.3661 -0.38392,0.9878 -0.56745,1.3814 -0.18353,0.3937 -0.81989,1.8111 -1.4141,3.1496 -1.12925,2.544 -4.96466,10.3824 -6.24434,12.7615 -1.4523,2.7001 -2.49676,4.5591 -3.40025,6.0519 -0.50362,0.8321 -0.98037,1.6333 -1.05943,1.7805 -1.08339,2.0167 -5.89271,9.0186 -7.7743,11.3186 -0.28944,0.3539 -1.20447,1.4735 -2.03337,2.4881 -1.75784,2.1516 -4.30432,5.0127 -5.61308,6.3065 -2.08313,2.0594 -3.95611,3.8425 -4.71796,4.4914 -0.50521,0.4302 -1.06764,0.9185 -1.24983,1.0849 -10.20768,9.3236 -26.75108,15.5594 -38.94462,14.6798 z m -12.49835,-3.7996 c 0,-0.036 -0.0297,-0.066 -0.0658,-0.066 -0.0362,0 -0.0658,0.03 -0.0658,0.066 0,0.036 0.0297,0.066 0.0658,0.066 0.0362,0 0.0658,-0.03 0.0658,-0.066 z m 56.17681,-15.9189 c 0,-0.036 -0.0297,-0.066 -0.0658,-0.066 -0.0362,0 -0.0659,0.03 -0.0659,0.066 0,0.036 0.0297,0.066 0.0659,0.066 0.0362,0 0.0658,-0.03 0.0658,-0.066 z m 53.87446,14.7878 c -14.54387,-1.1888 -26.08967,-7.894 -31.93698,-18.5471 -1.75227,-3.1924 1.03251,-3.0945 3.42535,0.1204 8.35827,11.2298 27.31132,15.9624 41.99671,10.4866 0.47033,-0.1753 1.29917,-0.4786 1.84185,-0.6737 11.22281,-4.0368 21.01972,-12.5428 27.56752,-23.9349 6.88222,-11.9739 9.03509,-27.3604 5.72708,-40.9312 -0.32866,-1.3482 -1.3598,-4.4599 -1.78851,-5.3971 -0.17929,-0.392 -0.32599,-0.7516 -0.32599,-0.7991 0,-0.2125 -2.18746,-4.4233 -2.81271,-5.4143 -1.92732,-3.0545 -4.59952,-6.2057 -6.91351,-8.1528 -0.40082,-0.3373 -0.83747,-0.7102 -0.97035,-0.829 -0.13288,-0.1186 -0.72585,-0.5583 -1.31771,-0.9771 -0.59187,-0.4189 -1.37211,-0.9825 -1.7339,-1.2525 -0.3618,-0.2701 -0.92422,-0.6345 -1.24983,-0.8097 -0.32563,-0.1752 -0.80797,-0.4425 -1.07188,-0.5939 -2.38365,-1.3683 -6.81573,-3.0712 -9.71292,-3.7322 -5.31327,-1.212 -8.02891,-1.5854 -13.74342,-1.8894 -1.69479,-0.091 -1.78412,-0.1427 -1.78412,-1.0475 0,-1.0644 0.20523,-1.184 2.36812,-1.3795 4.66719,-0.4217 7.38013,-0.7775 9.47245,-1.2424 0.47032,-0.1045 1.29537,-0.2856 1.83346,-0.4024 4.06263,-0.8822 11.94841,-3.8598 12.76986,-4.8217 0.0362,-0.043 0.4802,-0.3179 0.9867,-0.6123 3.8289,-2.2255 7.89632,-5.7537 10.80821,-9.3751 1.13189,-1.4077 2.93999,-3.945 2.93999,-4.1257 0,-0.032 0.24721,-0.463 0.54938,-0.9588 12.11305,-19.8766 6.6556,-47.3272 -11.63155,-58.506 -1.83017,-1.1188 -2.90701,-1.6579 -6.21819,-3.1133 -2.19828,-0.9663 -6.76957,-2.2438 -10.13023,-2.831 -15.37917,-2.6874 -34.43381,1.1107 -48.87513,9.7421 -1.40561,0.8401 -1.89902,1.1637 -4.01263,2.6312 -2.57392,1.7872 -5.52173,4.0774 -6.97565,5.4196 -0.21867,0.202 -0.69229,0.6279 -1.05249,0.9466 -1.65383,1.4635 -4.62297,4.4744 -5.59091,5.6696 -0.32229,0.398 -0.62024,0.7532 -0.66211,0.7894 -0.3307,0.2858 -2.84011,3.5882 -3.89883,5.1309 -4.18644,6.1003 -7.19467,12.8058 -8.38089,18.6818 -2.50765,12.4217 -0.49731,20.3545 6.77365,26.7289 2.31708,2.0314 1.75215,3.5995 -0.86795,2.4092 -5.12929,-2.3303 -9.34206,-8.5789 -10.59746,-15.7189 -0.14631,-0.8321 -0.33026,-1.8385 -0.40877,-2.2365 -0.32929,-1.6693 -0.28428,-6.4545 0.0848,-9.012 0.0313,-0.217 0.14963,-1.0429 0.26295,-1.8351 1.83005,-12.7984 11.6412,-27.5888 25.11968,-37.8681 5.31601,-4.0543 11.58577,-7.7521 16.7847,-9.8994 0.75978,-0.3138 1.7344,-0.7273 2.16587,-0.9189 3.4423,-1.5289 12.96096,-4.3049 17.1079,-4.9892 11.87807,-1.9605 23.77395,-1.9098 33.13394,0.1412 0.51727,0.1134 1.32534,0.2839 1.79567,0.3791 9.43349,1.9066 20.27273,7.765 26.5766,14.364 11.40349,11.9376 14.58007,30.6452 7.73614,45.56 -4.73414,10.317 -10.31091,16.5148 -20.30143,22.562 -1.73877,1.0525 -5.69898,3.1215 -6.77542,3.5398 -0.32561,0.1265 -0.82884,0.3381 -1.11827,0.47 -1.18764,0.5419 -2.25021,0.9683 -3.33065,1.3366 -1.95463,0.6664 -5.77225,1.8033 -6.6059,1.9673 -0.94719,0.1863 -0.9694,0.4148 -0.0518,0.5318 0.56176,0.072 1.52448,0.2656 3.83947,0.7737 7.16349,1.5724 14.55511,5.0772 20.34266,9.6456 1.88178,1.4855 4.3184,3.8556 5.81153,5.653 0.55343,0.6661 1.24855,1.5 1.54469,1.8529 0.29615,0.3528 0.71782,0.9153 0.93704,1.2498 0.21921,0.3345 0.44434,0.628 0.50025,0.6521 0.056,0.024 0.10168,0.099 0.10168,0.1664 0,0.1114 0.58574,1.0778 1.20559,1.9891 0.55422,0.815 2.58585,5.0044 3.04851,6.2864 0.27417,0.7598 0.54872,1.4998 0.6101,1.6445 2.67668,6.311 3.12769,17.0729 1.10541,26.3781 -1.91226,8.7992 -5.68767,16.9452 -11.28025,24.3389 -0.57469,0.7598 -1.08016,1.411 -1.12327,1.4472 -0.043,0.036 -0.40316,0.4505 -0.8001,0.9209 -0.39696,0.4703 -0.78179,0.9212 -0.85515,1.0019 -2.57115,2.8275 -3.54027,3.8291 -4.72937,4.8877 -0.79116,0.7043 -1.82721,1.6296 -2.30234,2.0564 -11.11385,9.9819 -28.78508,15.5954 -44.93699,14.2751 z"
       id="path8" /></g></svg>
